# xmcd
#
# Track frame offsets:
#	150
#	15657
#	32504
#	45182
#	59293
#	71718
#	90722
#	114499
#	127755
#	142548
#	162991
#	180781
#	198483
#	216129
#	235852
#	250611
#	269985
#
# Disc length: 3720 seconds
#
# Revision: 2
# Processed by: cddbd v1.5.2PL0 Copyright (c) Steve Scherf et al.
# Submitted via: audiograbber 1.83.01
#
DISCID=db0e8611
DTITLE=Johnson, Jill - The Christmas In You [new edition]
DYEAR=2008
DGENRE=Jul
TTITLE0=When Christmas was mine
TTITLE1=The Christmas in you
TTITLE2=The angles cried
TTITLE3=What child is this
TTITLE4=Big bag of money
TTITLE5=Blue December
TTITLE6=Merry Christmas to you
TTITLE7=Blame it on Christmas
TTITLE8=Winter in July
TTITLE9=Have yourself a merry little Christmas
TTITLE10=First Christmas without you
TTITLE11=The Christmas song
TTITLE12=Oh come all ye faithful
TTITLE13=I bring Christmas back to you
TTITLE14=I want you for Christmas
TTITLE15=I wanna wish you all a merry Christmas
TTITLE16=Down to the river to pray
EXTD=2008 - Lionheart LHICD0071
EXTT0=
EXTT1=
EXTT2=
EXTT3=
EXTT4=
EXTT5=
EXTT6=
EXTT7=
EXTT8=
EXTT9=
EXTT10=
EXTT11=
EXTT12=
EXTT13=
EXTT14=
EXTT15=
EXTT16=
PLAYORDER=
